# xmcd
#
# Track frame offsets:
#	150
#	68299
#	120658
#	188552
#
# Disc length: 3100 seconds
#
# Revision: 0
# Processed by: cddbd v1.4PL0 Copyright (c) Steve Scherf et al.
# Submitted via: audiograbber 1.81.02
#
DISCID=270c1a04
DTITLE=Allman Brothers - 1996-06-22 - Darien Lake, NY - Disc 3
DYEAR=1900
DGENRE=
TTITLE0=abb1996-06 - 22d3t01
TTITLE1=abb1996-06 - 22d3t02
TTITLE2=abb1996-06 - 22d3t03
TTITLE3=abb1996-06 - 22d3t04
EXTD=
EXTT0=
EXTT1=
EXTT2=
EXTT3=
PLAYORDER=
